<?xml version="1.0" standalone="no"?>
<!DOCTYPE svg PUBLIC "-//W3C//DTD SVG 20010904//EN"
 "http://www.w3.org/TR/2001/REC-SVG-20010904/DTD/svg10.dtd">
<svg version="1.0" xmlns="http://www.w3.org/2000/svg"
 width="340.000000pt" height="172.000000pt" viewBox="0 0 340.000000 172.000000"
 preserveAspectRatio="xMidYMid meet">

<g transform="translate(0.000000,172.000000) scale(0.100000,-0.100000)"
fill="#000000" stroke="none">
<path d="M1435 1285 c-108 -17 -252 -57 -388 -108 l-113 -43 -50 23 c-55 25
-143 45 -94 21 14 -6 51 -27 83 -46 l58 -34 107 40 c268 101 475 147 621 140
87 -4 92 -6 257 -85 150 -72 177 -82 244 -88 41 -4 125 -20 188 -35 183 -47
282 -114 282 -194 0 -24 3 -27 10 -16 27 42 -8 121 -73 162 -86 54 -242 97
-412 113 -60 6 -88 16 -192 71 -67 35 -149 70 -181 79 -72 18 -232 18 -347 0z"/>
<path d="M1540 1239 c-68 -8 -283 -59 -278 -65 2 -2 44 5 93 15 l90 19 33 -37
c21 -23 31 -29 26 -16 -19 54 -14 60 61 66 114 9 178 -4 248 -50 65 -42 65
-43 -13 -59 -40 -9 -33 -10 58 -11 56 -1 102 1 102 3 0 2 -43 31 -95 65 -126
81 -169 90 -325 70z"/>
<path d="M1204 1155 c-24 -18 -7 -19 26 0 16 9 19 14 9 15 -8 0 -24 -7 -35
-15z"/>
<path d="M800 1081 c-15 -30 -12 -34 12 -17 12 9 43 16 68 17 34 0 40 2 25 9
-38 16 -93 11 -105 -9z"/>
<path d="M1240 1085 c58 -8 134 -21 169 -30 86 -21 89 -11 4 15 -44 14 -104
23 -173 25 l-105 4 105 -14z"/>
<path d="M1098 1083 c7 -3 16 -2 19 1 4 3 -2 6 -13 5 -11 0 -14 -3 -6 -6z"/>
<path d="M1950 1059 c69 -5 172 -16 230 -24 58 -9 119 -18 135 -20 17 -3 5 4
-25 14 -70 24 -232 41 -363 40 l-102 -2 125 -8z"/>
<path d="M2448 1011 c17 -11 32 -28 32 -36 0 -9 9 -15 25 -15 14 0 25 3 25 8
0 10 -60 48 -90 56 -21 6 -19 4 8 -13z"/>
<path d="M1214 750 c-93 -46 -149 -116 -142 -176 7 -62 82 -63 159 -3 l37 28
6 -29 c6 -34 21 -37 54 -15 19 14 21 14 16 1 -4 -10 1 -18 11 -22 11 -5 30 6
59 35 47 47 76 56 50 16 -26 -40 -13 -55 48 -54 29 1 74 -4 99 -11 35 -9 52
-9 68 0 30 15 19 26 -39 40 -27 7 -50 15 -50 19 0 4 23 32 51 62 28 30 43 43
35 29 -9 -13 -16 -32 -16 -42 0 -32 34 0 59 54 44 96 -11 76 -108 -39 -29 -35
-59 -62 -65 -61 -6 1 -21 -3 -33 -10 -30 -17 -37 0 -12 32 23 30 20 42 -15 48
-32 6 -56 -8 -56 -34 0 -22 -26 -47 -48 -48 -10 0 -10 5 -2 21 14 25 21 59 14
70 -7 12 -66 -11 -95 -38 -14 -13 -28 -21 -31 -17 -4 3 -24 -6 -45 -20 -42
-29 -98 -35 -107 -11 -7 18 9 63 32 89 26 29 93 76 109 76 21 0 -3 -39 -30
-50 -31 -11 -69 -49 -62 -61 12 -18 36 -8 80 32 49 45 67 85 44 100 -20 13
-29 11 -75 -11z m131 -150 c-29 -30 -58 -41 -49 -17 5 14 53 46 68 47 6 0 -3
-13 -19 -30z"/>
<path d="M1907 613 c-51 -48 -79 -52 -34 -5 30 31 33 42 15 42 -7 0 -30 -19
-51 -42 -28 -32 -37 -37 -32 -20 10 34 -3 62 -29 62 -49 0 -87 -80 -51 -110
12 -10 23 -8 57 8 39 18 44 18 55 3 10 -13 15 -14 32 -3 18 10 21 10 21 -3 0
-20 29 -19 52 2 16 15 21 15 28 3 7 -12 15 -9 41 15 27 25 30 26 20 7 -22 -41
11 -58 44 -22 17 19 19 19 31 2 12 -16 15 -16 44 0 16 9 30 15 30 13 0 -2 -18
-25 -40 -50 -44 -50 -54 -83 -21 -65 11 5 29 25 40 44 12 19 33 42 48 51 24
16 27 16 35 1 5 -9 16 -16 25 -16 20 0 83 39 83 51 0 6 -10 3 -22 -5 -28 -20
-58 -20 -58 -1 0 8 7 15 15 15 21 0 68 47 60 60 -15 24 -51 8 -97 -42 l-49
-53 15 37 c21 50 7 55 -34 13 -19 -19 -40 -35 -48 -35 -25 0 -6 25 36 48 44
25 54 42 25 42 -24 0 -62 -27 -101 -70 -32 -36 -47 -23 -17 16 17 22 19 44 5
44 -5 0 -29 -17 -52 -37 -37 -33 -40 -34 -19 -8 37 48 3 44 -38 -4 -41 -48
-61 -45 -30 6 33 53 18 56 -34 6z m408 17 c-3 -5 -16 -15 -28 -21 -22 -12 -22
-12 -3 10 19 21 43 30 31 11z m-544 -37 c-7 -28 -41 -46 -41 -22 0 14 29 49
41 49 4 0 4 -12 0 -27z"/>
</g>
</svg>
